<svg width="740" height="293" viewBox="0 0 740 293" fill="none" xmlns="http://www.w3.org/2000/svg">
<path d="M0.952148 291.999H17.7406V111.62L24.3779 291.999H32.1865L38.4334 111.62V291.999H56.0028V1.51915H32.9674L28.6727 159.643L23.9875 1.51915H0.952148V291.999Z" fill="white"/>
<path d="M84.6475 291.999H104.95L95.1891 1.51915H67.859L58.0983 291.999H75.6676L77.2294 223.283H83.4762L84.6475 291.999ZM77.6198 203.762L80.7432 54.6176L83.0858 203.762H77.6198Z" fill="white"/>
<path d="M106.948 291.999H137.011C147.162 291.999 152.628 284.581 152.628 273.258V19.4789C152.628 6.98517 145.991 1.51915 136.23 1.51915H106.948V291.999ZM127.641 19.4789H129.202C131.545 19.4789 131.935 20.6502 131.935 23.3832V269.354C131.935 272.478 131.545 273.649 129.202 273.649H127.641V19.4789Z" fill="white"/>
<path d="M172.147 1.51915V291.999H206.114V272.087H192.839V147.93H204.943V127.628H192.839V21.0406H205.724V1.51915H172.147Z" fill="white"/>
<path d="M254.43 270.525V169.794C254.43 157.301 253.649 151.054 246.621 141.684L233.346 123.724C230.613 119.819 229.833 118.258 229.833 112.011V21.4311C229.833 19.4789 230.613 18.6981 232.175 18.6981C233.346 18.6981 234.127 19.4789 234.127 21.4311V119.429H254.039V21.0406C254.039 8.54689 249.745 0.738281 234.127 0.738281H229.833C214.215 0.738281 209.14 8.54689 209.14 22.6024V110.449C209.14 122.162 210.702 129.971 216.948 138.56L230.223 156.129C232.956 160.034 233.737 161.986 233.737 168.233V270.916C233.737 273.258 233.346 274.43 231.394 274.43C229.833 274.43 229.442 273.258 229.442 270.916V160.034H208.749V272.087C208.749 285.752 214.996 292.78 229.442 292.78H233.737C247.402 292.78 254.43 285.752 254.43 270.525Z" fill="white"/>
<path d="M288.769 159.253C296.968 159.253 303.215 153.787 303.215 143.245V17.5268C303.215 6.20429 297.359 1.51915 288.379 1.51915H258.316V291.999H279.008V159.253H288.769ZM279.008 19.4789H280.57C282.913 19.4789 283.303 20.6502 283.303 22.9928V136.998C283.303 139.731 282.522 140.512 280.57 140.512H279.008V19.4789Z" fill="white"/>
<path d="M327.812 149.883H329.374C331.717 149.883 332.107 151.054 332.107 152.616V286.923C332.107 289.656 332.497 291.218 333.278 291.999H353.581V291.609C353.19 290.437 352.8 288.876 352.8 286.533V149.883C352.8 142.464 348.115 138.56 344.991 137.389C348.115 136.217 352.409 133.094 352.409 124.505V16.7459C352.409 7.3756 347.724 1.51915 339.525 1.51915H307.119V291.999H327.812V149.883ZM327.812 19.4789H329.764C331.716 19.4789 332.107 20.2598 332.107 22.6024V126.847C332.107 128.799 331.326 129.971 329.374 129.971H327.812V19.4789Z" fill="white"/>
<path d="M356.686 1.51915V291.999H390.653V272.087H377.379V147.93H389.482V127.628H377.379V21.0406H390.263V1.51915H356.686Z" fill="white"/>
<path d="M438.969 270.525V169.794C438.969 157.301 438.188 151.054 431.16 141.684L417.886 123.724C415.153 119.819 414.372 118.258 414.372 112.011V21.4311C414.372 19.4789 415.153 18.6981 416.714 18.6981C417.886 18.6981 418.667 19.4789 418.667 21.4311V119.429H438.578V21.0406C438.578 8.54689 434.284 0.738281 418.667 0.738281H414.372C398.755 0.738281 393.679 8.54689 393.679 22.6024V110.449C393.679 122.162 395.241 129.971 401.488 138.56L414.762 156.129C417.495 160.034 418.276 161.986 418.276 168.233V270.916C418.276 273.258 417.886 274.43 415.933 274.43C414.372 274.43 413.981 273.258 413.981 270.916V160.034H393.289V272.087C393.289 285.752 399.535 292.78 413.981 292.78H418.276C431.941 292.78 438.969 285.752 438.969 270.525Z" fill="white"/>
<path d="M488.535 270.525V169.794C488.535 157.301 487.754 151.054 480.727 141.684L467.452 123.724C464.719 119.819 463.938 118.258 463.938 112.011V21.4311C463.938 19.4789 464.719 18.6981 466.281 18.6981C467.452 18.6981 468.233 19.4789 468.233 21.4311V119.429H488.145V21.0406C488.145 8.54689 483.85 0.738281 468.233 0.738281H463.938C448.321 0.738281 443.245 8.54689 443.245 22.6024V110.449C443.245 122.162 444.807 129.971 451.054 138.56L464.329 156.129C467.062 160.034 467.842 161.986 467.842 168.233V270.916C467.842 273.258 467.452 274.43 465.5 274.43C463.938 274.43 463.548 273.258 463.548 270.916V160.034H442.855V272.087C442.855 285.752 449.102 292.78 463.548 292.78H467.842C481.507 292.78 488.535 285.752 488.535 270.525Z" fill="white"/>
<path d="M538.882 24.9449C538.882 9.71816 532.245 0.738281 517.018 0.738281H514.676C499.449 0.738281 492.421 9.71816 492.421 24.9449V268.573C492.421 283.8 499.449 292.78 514.676 292.78H517.018C532.245 292.78 538.882 283.8 538.882 268.573V24.9449ZM517.799 270.135C517.799 272.478 517.409 273.649 515.847 273.649C513.895 273.649 513.504 272.478 513.504 270.135V22.9928C513.504 20.6502 513.895 19.4789 515.847 19.4789C517.409 19.4789 517.799 20.6502 517.799 22.9928V270.135Z" fill="white"/>
<path d="M596.645 21.0406V1.51915H557.602V21.0406H566.972V291.999H587.274V21.0406H596.645Z" fill="white"/>
<path d="M599.942 1.51915V291.999H633.909V272.087H620.635V147.93H632.738V127.628H620.635V21.0406H633.519V1.51915H599.942Z" fill="white"/>
<path d="M661.904 291.999H682.207L672.446 1.51915H645.116L635.355 291.999H652.924L654.486 223.283H660.733L661.904 291.999ZM654.877 203.762L658 54.6176L660.343 203.762H654.877Z" fill="white"/>
<path d="M684.205 291.999H700.993V111.62L707.63 291.999H715.439L721.686 111.62V291.999H739.255V1.51915H716.22L711.925 159.643L707.24 1.51915H684.205V291.999Z" fill="white"/>
</svg>
