<svg width="1527" height="259" viewBox="0 0 1527 259" fill="none" xmlns="http://www.w3.org/2000/svg">
<path d="M131.302 258.58H141.084C169.081 258.58 191.681 256.218 208.546 250.821C225.412 245.424 238.567 238.678 247.674 230.583C256.782 222.487 262.853 213.717 265.889 203.598C268.588 193.816 270.274 184.371 270.274 174.926V170.879C270.274 160.759 268.588 151.652 265.552 142.882C262.179 134.112 256.444 126.691 248.349 120.282C239.916 113.873 228.448 108.813 214.28 104.766C199.776 100.718 181.561 98.3568 159.299 97.3448L124.556 95.9956C114.436 95.6583 106.341 94.6463 100.269 93.2971C93.8604 91.9478 88.8007 90.2613 85.4276 88.2374C81.7172 86.2135 79.356 83.8524 78.0068 81.1539C76.6575 78.4554 75.9829 75.4196 75.9829 72.0465C75.9829 68.6734 76.6575 65.6376 78.3441 62.9391C79.6933 60.2406 82.7291 57.8794 86.7768 55.8556C90.8246 53.8317 96.2216 52.4824 103.305 51.4705C110.389 50.4586 119.496 49.784 130.965 49.784H134.338C146.481 49.784 155.926 50.7959 163.346 52.4824C170.43 54.5063 175.827 56.8675 179.875 59.566C183.922 62.2645 186.621 65.3003 187.97 68.6734C189.319 72.0465 189.994 74.745 190.669 77.4434L265.214 77.4434V73.733C265.214 65.6376 263.865 57.2048 261.167 48.4347C258.468 39.6646 252.397 31.9065 243.627 24.8229C234.856 17.7394 222.039 12.0051 205.51 7.28274C188.645 2.56039 166.72 0.199219 139.06 0.199219L127.591 0.199219C101.281 0.199219 80.3679 2.22308 64.177 6.27082C47.9861 10.3185 35.1682 16.0528 26.0608 22.799C16.9534 29.5453 10.8818 37.6408 7.50874 46.4108C4.13562 55.5182 2.78638 64.9629 2.78638 74.4076L2.78638 77.4434C2.78638 86.8882 4.47294 95.9956 8.18336 104.428C11.5565 113.198 17.6281 120.619 26.0608 127.366C34.4936 134.112 45.6249 139.509 59.4546 143.556C73.2844 147.604 90.4873 149.965 111.401 150.64L144.794 151.652C154.914 152.327 163.346 153.001 170.093 154.35C176.839 155.7 181.899 157.724 185.946 159.747C189.657 161.771 192.355 164.47 193.704 167.506C195.054 170.879 196.066 174.252 196.066 177.625C196.066 181.335 195.391 185.046 194.042 188.419C192.693 192.129 189.994 195.502 185.946 198.201C181.899 200.899 175.827 203.26 168.069 204.947C160.311 206.971 149.854 207.646 137.036 207.646H134.675C121.183 207.646 110.726 206.296 102.968 203.598C95.2096 200.899 89.4753 197.864 85.4276 193.816C81.3799 190.105 79.0187 186.058 77.6694 182.01C76.3202 177.962 75.6456 174.252 75.6456 171.553H0.0878906L0.0878906 175.264C0.0878906 180.323 0.425201 185.72 1.43713 191.792C2.44907 197.864 4.47294 204.272 7.84605 210.344C10.8818 216.416 15.2669 222.487 21.3385 228.222C27.4101 234.293 35.1682 239.353 44.9503 243.738C54.395 248.46 66.5382 251.833 80.7052 254.532C94.8723 257.23 111.738 258.58 131.302 258.58Z" fill="#333333"/>
<path d="M368.028 3.23502L298.542 3.23502L298.542 254.194L521.505 254.194V195.165L368.028 195.165L368.028 3.23502Z" fill="#333333"/>
<path d="M667.466 257.905H677.248C696.812 257.905 714.015 256.218 728.519 252.171C742.686 248.123 755.167 243.063 765.286 236.317C775.405 229.571 783.501 222.15 789.91 213.38C795.981 204.61 801.041 195.502 804.414 186.058C807.787 176.613 810.148 167.168 811.498 157.724C812.847 148.279 813.521 139.171 813.521 130.739V3.23502L744.373 3.23502V129.052C744.373 136.473 743.361 144.231 742.012 152.327C740.662 160.422 737.289 168.18 732.567 174.926C727.844 181.673 720.761 187.407 711.316 192.129C701.872 196.852 689.054 198.875 673.2 198.875H671.514C655.323 198.875 642.842 196.852 633.397 192.129C623.953 187.407 616.532 181.673 611.472 174.926C606.413 168.18 603.039 160.422 601.69 152.327C600.341 144.231 599.666 136.473 599.666 129.052V3.23502L530.18 3.23502V130.739C530.18 139.171 530.518 148.279 531.867 157.724C532.879 167.168 534.903 176.613 538.276 186.058C541.649 195.502 546.371 204.272 552.443 213.043C558.514 221.813 566.947 229.571 577.066 236.317C587.186 243.063 599.666 248.123 614.508 252.171C629.35 256.218 646.89 257.905 667.466 257.905Z" fill="#333333"/>
<path d="M919.664 111.849V58.554L1016.47 58.554C1023.22 58.554 1029.29 59.2287 1034.01 60.5779C1038.73 61.9271 1042.44 63.951 1045.14 66.3122C1047.84 68.6734 1049.53 71.3718 1050.88 74.4076C1051.89 77.7808 1052.56 81.1539 1052.56 84.527V85.2016C1052.56 88.912 1051.89 92.2851 1050.88 95.6583C1049.53 99.0314 1047.84 101.73 1045.14 104.091C1042.44 106.452 1038.73 108.476 1034.01 109.825C1029.29 111.175 1023.22 111.849 1016.47 111.849L919.664 111.849ZM1072.47 133.437C1087.98 130.064 1100.8 122.98 1110.58 112.861C1120.36 102.742 1125.42 89.5867 1125.42 73.733V70.3599C1125.42 63.6137 1124.07 56.5302 1122.05 48.4347C1120.03 40.6766 1115.3 33.2557 1107.88 26.5095C1100.46 19.7632 1090.01 14.3663 1075.84 9.98124C1061.67 5.59619 1042.78 3.23502 1019.17 3.23502L850.178 3.23502V254.194H919.664V168.855L1010.06 168.855C1027.6 168.855 1039.75 172.902 1046.49 180.323C1053.24 188.081 1056.95 199.887 1056.95 216.078V236.654C1056.95 242.389 1056.95 246.436 1057.62 249.135C1058.3 251.833 1058.64 253.52 1059.31 254.194H1131.16V252.508C1129.81 250.484 1128.8 247.786 1128.12 244.075C1127.45 240.702 1127.11 233.956 1127.11 224.511V198.538C1127.11 180.323 1122.05 165.819 1112.61 155.025C1102.82 144.568 1089.33 137.485 1072.47 133.437Z" fill="#333333"/>
<path d="M1227.1 173.914L1327.62 173.914C1347.19 173.914 1363.38 171.891 1376.87 167.506C1390.03 163.458 1400.82 157.386 1408.92 149.965C1417.01 142.544 1422.74 133.774 1426.12 123.655C1429.49 113.536 1431.51 102.404 1431.51 90.2613V86.5509C1431.51 74.4077 1429.83 63.2764 1426.46 53.1571C1423.08 43.0377 1417.35 34.2676 1409.25 26.8468C1401.16 19.4259 1390.36 13.6916 1377.21 9.64393C1363.72 5.59619 1347.19 3.23502 1327.62 3.23502L1157.62 3.23502V254.194H1227.1V173.914ZM1227.1 117.921V59.2287L1322.56 59.2287C1335.38 59.2287 1344.49 61.9271 1350.56 66.9868C1356.29 72.3838 1359.33 79.13 1359.33 87.9001V89.2494C1359.33 98.3568 1356.29 105.44 1350.56 110.5C1344.49 115.56 1335.38 117.921 1322.56 117.921L1227.1 117.921Z" fill="#333333"/>
<path d="M1526.99 3.23502L1451.43 3.23502L1473.36 172.565L1505.4 172.565L1526.99 3.23502ZM1525.64 254.194V194.49L1453.12 194.49V254.194L1525.64 254.194Z" fill="#333333"/>
</svg>
